# xmcd CD database file
#
# Track frame offsets:
#	150
#	28556
#	47742
#	65451
#	88126
#	127300
#	160615
#	179255
#	212635
#
# Disc length: 3193 seconds
#
# Revision: 3
# Processed by: cddbd v1.5.2PL0 Copyright (c) Steve Scherf et al.
# Submitted via: CDex 1.51
#
DISCID=7a0c7709
DTITLE=Franz Schubert - Vol. 10 - Sonata for violin and piano D574 - Piano quintet D667
DYEAR=1900
DGENRE=Classique
TTITLE0=Sonata for violin and piano in A major, D574 - I. Allegro moderato  [Sergej Rachmaninov, piano, 1928]
TTITLE1=Sonata for violin and piano in A major, D574 - II. Scherzo - Presto
TTITLE2=Sonata for violin and piano in A major, D574 - III. Andantino
TTITLE3=Sonata for violin and piano in A major, D574 - IV. Allegro vivace
TTITLE4=Piano quintet in A major, D667 ''Trout'' - I. Allegro vivace  [Artur Schnabel, piano, 1935]
TTITLE5=Piano quintet in A major, D667 ''Trout'' - II. Andante
TTITLE6=Piano quintet in A major, D667 ''Trout'' - III. Scherzo - Presto
TTITLE7=Piano quintet in A major, D667 ''Trout'' - IV. Andantino
TTITLE8=Piano quintet in A major, D667 ''Trout'' - V. Allegro giusto
EXTD=
EXTT0=
EXTT1=
EXTT2=
EXTT3=
EXTT4=
EXTT5=
EXTT6=
EXTT7=
EXTT8=
PLAYORDER=
